<svg width="80" height="80" viewBox="0 0 80 80" fill="none" xmlns="http://www.w3.org/2000/svg">
<rect width="80" height="80" rx="40" fill="white"/>
<rect width="80" height="80" rx="40" fill="url(#paint0_radial_173_1493)"/>
<path d="M36.7501 23.7501C36.7501 21.8538 35.9968 20.0352 34.6559 18.6943C33.315 17.3534 31.4964 16.6001 29.6001 16.6001C27.7038 16.6001 25.8852 17.3534 24.5443 18.6943C23.2034 20.0352 22.4501 21.8538 22.4501 23.7501C22.4501 25.6464 23.2034 27.465 24.5443 28.8059C25.8852 30.1468 27.7038 30.9001 29.6001 30.9001C31.4964 30.9001 33.315 30.1468 34.6559 28.8059C35.9968 27.465 36.7501 25.6464 36.7501 23.7501ZM25.0501 23.7501C25.0501 23.1526 25.1678 22.5609 25.3964 22.0089C25.6251 21.4569 25.9603 20.9553 26.3828 20.5328C26.8053 20.1103 27.3069 19.7751 27.8589 19.5464C28.4109 19.3178 29.0026 19.2001 29.6001 19.2001C30.1976 19.2001 30.7893 19.3178 31.3413 19.5464C31.8933 19.7751 32.3949 20.1103 32.8174 20.5328C33.2399 20.9553 33.5751 21.4569 33.8037 22.0089C34.0324 22.5609 34.1501 23.1526 34.1501 23.7501C34.1501 24.9568 33.6707 26.1141 32.8174 26.9674C31.9641 27.8207 30.8068 28.3001 29.6001 28.3001C28.3934 28.3001 27.2361 27.8207 26.3828 26.9674C25.5295 26.1141 25.0501 24.9568 25.0501 23.7501ZM20.5001 33.5001H31.3759C30.9495 34.3061 30.6323 35.1797 30.4451 36.1001H20.5001C20.1553 36.1001 19.8247 36.2371 19.5809 36.4809C19.3371 36.7247 19.2001 37.0553 19.2001 37.4001V38.7001C19.2001 41.9761 22.0575 45.4965 27.2497 46.3181C26.4125 46.8901 25.7157 47.6519 25.2191 48.5385C19.7331 47.0539 16.6001 42.8263 16.6001 38.7001V37.4001C16.6001 36.3658 17.011 35.3738 17.7424 34.6424C18.4738 33.911 19.4658 33.5001 20.5001 33.5001ZM34.4855 33.5001C35.7959 31.9141 37.7797 30.9001 40.0001 30.9001C41.5572 30.8974 43.0723 31.4041 44.3145 32.343C45.5566 33.2819 46.4575 34.6014 46.8797 36.1001C47.256 37.4378 47.2348 38.8561 46.8187 40.1819C46.4025 41.5078 45.6095 42.6838 44.5362 43.5666C43.463 44.4493 42.156 45.0005 40.7748 45.153C39.3936 45.3055 37.9978 45.0527 36.7579 44.4253C35.8032 43.9394 34.9699 43.2452 34.3196 42.394C33.6692 41.5428 33.2184 40.5564 33.0005 39.5075C32.7826 38.4587 32.8032 37.3743 33.0606 36.3345C33.3181 35.2947 33.8034 34.326 34.4855 33.5001ZM35.8921 36.1001C35.636 36.6402 35.4888 37.2256 35.459 37.8226C35.4291 38.4196 35.5171 39.0167 35.718 39.5797C36.1236 40.7168 36.9644 41.6461 38.0553 42.1633C39.1462 42.6805 40.3978 42.7431 41.5349 42.3374C42.672 41.9317 43.6013 41.091 44.1185 40.0001C44.6357 38.9089 44.6982 37.6569 44.2922 36.5196C43.8863 35.3823 43.0452 34.4528 41.954 33.9356C40.8628 33.4184 39.6108 33.3559 38.4735 33.7618C37.3361 34.1678 36.4067 35.0089 35.8895 36.1001M54.7811 48.5385C54.2859 47.6514 53.5906 46.892 52.7505 46.3207C57.9401 45.4965 60.8001 41.9735 60.8001 38.7001V37.4001C60.8001 37.0553 60.6631 36.7247 60.4193 36.4809C60.1755 36.2371 59.8449 36.1001 59.5001 36.1001H49.5551C49.3714 35.1936 49.0588 34.318 48.6269 33.5001H59.5001C60.5344 33.5001 61.5264 33.911 62.2578 34.6424C62.9892 35.3738 63.4001 36.3658 63.4001 37.4001V38.7001C63.4001 42.8263 60.2645 47.0513 54.7811 48.5385ZM51.6663 48.7647C50.9567 48.1418 50.0443 47.7988 49.1001 47.8001H30.9001C30.3876 47.7987 29.8798 47.8987 29.406 48.0942C28.9322 48.2897 28.5017 48.5769 28.1393 48.9393C27.7769 49.3017 27.4897 49.7322 27.2942 50.206C27.0987 50.6798 26.9987 51.1876 27.0001 51.7001V53.0001C27.0001 58.1247 31.8361 63.4001 40.0001 63.4001C48.1641 63.4001 53.0001 58.1247 53.0001 53.0001V51.7001C53.0001 50.5301 52.4853 49.4797 51.6663 48.7621M29.6001 51.7001C29.6001 51.3553 29.7371 51.0247 29.9809 50.7809C30.2247 50.5371 30.5553 50.4001 30.9001 50.4001H49.1001C49.4449 50.4001 49.7755 50.5371 50.0193 50.7809C50.2631 51.0247 50.4001 51.3553 50.4001 51.7001V53.0001C50.4001 56.7389 46.6769 60.8001 40.0001 60.8001C33.3233 60.8001 29.6001 56.7389 29.6001 53.0001V51.7001ZM50.4001 16.6001C52.2964 16.6001 54.115 17.3534 55.4559 18.6943C56.7968 20.0352 57.5501 21.8538 57.5501 23.7501C57.5501 25.6464 56.7968 27.465 55.4559 28.8059C54.115 30.1468 52.2964 30.9001 50.4001 30.9001C48.5038 30.9001 46.6852 30.1468 45.3443 28.8059C44.0034 27.465 43.2501 25.6464 43.2501 23.7501C43.2501 21.8538 44.0034 20.0352 45.3443 18.6943C46.6852 17.3534 48.5038 16.6001 50.4001 16.6001ZM50.4001 19.2001C49.1934 19.2001 48.0361 19.6795 47.1828 20.5328C46.3295 21.3861 45.8501 22.5434 45.8501 23.7501C45.8501 24.9568 46.3295 26.1141 47.1828 26.9674C48.0361 27.8207 49.1934 28.3001 50.4001 28.3001C51.6068 28.3001 52.7641 27.8207 53.6174 26.9674C54.4707 26.1141 54.9501 24.9568 54.9501 23.7501C54.9501 22.5434 54.4707 21.3861 53.6174 20.5328C52.7641 19.6795 51.6068 19.2001 50.4001 19.2001Z" fill="white"/>
<defs>
<radialGradient id="paint0_radial_173_1493" cx="0" cy="0" r="1" gradientUnits="userSpaceOnUse" gradientTransform="translate(74.8514 6.4) rotate(129.464) scale(95.3342 96.1082)">
<stop stop-color="#00E0F7" stop-opacity="0.8"/>
<stop offset="0.88125" stop-color="#8B00BD"/>
</radialGradient>
</defs>
</svg>
