<svg width="80" height="80" viewBox="0 0 80 80" fill="none" xmlns="http://www.w3.org/2000/svg">
<g id="trainer_648521 1">
<rect width="80" height="80" rx="40" fill="white"/>
<rect width="80" height="80" rx="40" fill="url(#paint0_radial_173_177)"/>
<g id="Group">
<g id="Group_2">
<path id="Vector" d="M58.8943 29.0611C57.334 29.0611 55.8702 29.8099 54.9364 31.052C54.9294 31.052 54.9235 31.05 54.9165 31.05C52.1748 31.05 49.9443 33.2805 49.9443 36.0222C49.9443 38.0559 51.1744 39.8031 52.9276 40.5728V43.9778H46.778C46.8894 43.6655 46.961 43.3334 46.961 42.9833C46.961 42.2166 46.6616 41.5235 46.1853 40.9944C46.6626 40.4654 46.961 39.7723 46.961 39.0056C46.961 37.7476 46.1764 36.6746 45.0725 36.237C45.2863 35.3977 45.8432 34.6529 46.6547 34.1646C50.5827 31.8028 52.9276 27.6649 52.9276 23.0944C52.9276 19.5433 51.5175 16.2328 48.9558 13.7715C46.3961 11.3113 43.0329 10.0344 39.4698 10.1776C32.8876 10.4411 27.451 15.7962 27.092 22.3715C26.8294 27.1657 29.2231 31.6825 33.3371 34.1606C34.1515 34.6509 34.7094 35.3947 34.9262 36.237C33.8224 36.6756 33.0387 37.7486 33.0387 39.0056C33.0387 39.7723 33.3381 40.4654 33.8144 40.9944C33.3371 41.5235 33.0387 42.2166 33.0387 42.9833C33.0387 43.3334 33.1103 43.6655 33.2217 43.9778H27.0721V40.5728C28.8253 39.8031 30.0554 38.0559 30.0554 36.0222C30.0554 33.2805 27.8249 31.05 25.0832 31.05C25.0762 31.05 25.0703 31.052 25.0633 31.052C24.1295 29.8099 22.6657 29.0611 21.1054 29.0611C18.3637 29.0611 16.1332 31.2917 16.1332 34.0333C16.1332 36.775 18.3637 39.0056 21.1054 39.0056C21.1134 39.0056 21.1213 39.0046 21.1293 39.0046L21.1303 39.0056H21.1054V44.9722C21.1054 47.7139 23.3359 49.9444 26.0776 49.9444H33.0387V68.8389C33.0387 69.3878 33.4843 69.8333 34.0332 69.8333H39.9999H45.9665C46.5155 69.8333 46.961 69.3878 46.961 68.8389V49.9444H53.9221C56.6638 49.9444 58.8943 47.7139 58.8943 44.9722V39.0056H58.8684C58.8694 39.0046 58.8694 39.0046 58.8704 39.0036C58.8784 39.0036 58.8863 39.0056 58.8943 39.0056C61.636 39.0056 63.8665 36.775 63.8665 34.0333C63.8665 31.2917 61.636 29.0611 58.8943 29.0611ZM34.3623 32.4571C30.8808 30.3599 28.8561 26.5362 29.0779 22.4799C29.3812 16.918 33.9815 12.3873 39.5494 12.1645C42.5526 12.0482 45.4116 13.1232 47.5775 15.2055C49.7454 17.2879 50.9387 20.0902 50.9387 23.0944C50.9387 26.9608 48.9538 30.4613 45.6304 32.4601C44.274 33.2756 43.3651 34.5624 43.0796 36.0222H42.9832V24.0889H43.9776C45.6224 24.0889 46.961 22.7504 46.961 21.1056C46.961 19.4607 45.6224 18.1222 43.9776 18.1222C42.3328 18.1222 40.9943 19.4607 40.9943 21.1056V22.1H39.0054V21.1056C39.0054 19.4607 37.6669 18.1222 36.0221 18.1222C34.3773 18.1222 33.0387 19.4607 33.0387 21.1056C33.0387 22.7504 34.3773 24.0889 36.0221 24.0889H37.0165V36.0222H36.9211C36.6356 34.5664 35.7237 33.2766 34.3623 32.4571ZM36.0221 43.9778C35.4741 43.9778 35.0276 43.5313 35.0276 42.9833C35.0276 42.4354 35.4741 41.9889 36.0221 41.9889H43.9776C44.5256 41.9889 44.9721 42.4354 44.9721 42.9833C44.9721 43.5313 44.5256 43.9778 43.9776 43.9778H36.0221ZM41.227 45.9667L39.9999 48.0112L38.7727 45.9667H41.227ZM43.9776 40H36.0221C35.4741 40 35.0276 39.5535 35.0276 39.0056C35.0276 38.4576 35.4741 38.0111 36.0221 38.0111H43.9776C44.5256 38.0111 44.9721 38.4576 44.9721 39.0056C44.9721 39.5535 44.5256 40 43.9776 40ZM37.0165 22.1H36.0221C35.4741 22.1 35.0276 21.6535 35.0276 21.1056C35.0276 20.5576 35.4741 20.1111 36.0221 20.1111C36.57 20.1111 37.0165 20.5576 37.0165 21.1056V22.1ZM39.0054 36.0222V24.0889H40.9943V36.0222H39.0054ZM42.9832 22.1V21.1056C42.9832 20.5576 43.4297 20.1111 43.9776 20.1111C44.5256 20.1111 44.9721 20.5576 44.9721 21.1056C44.9721 21.6535 44.5256 22.1 43.9776 22.1H42.9832ZM21.707 32.3945C21.5877 32.5049 21.4803 32.6242 21.3729 32.7465C21.2934 32.835 21.2188 32.9265 21.1462 33.021C21.0577 33.1363 20.9702 33.2497 20.8926 33.373C20.7593 33.5809 20.64 33.7967 20.5396 34.0234C20.5018 34.1089 20.4749 34.1994 20.4421 34.2879C20.3695 34.4779 20.3089 34.6718 20.2601 34.8717C20.2383 34.9621 20.2174 35.0516 20.2015 35.1441C20.1478 35.4305 20.111 35.7219 20.111 36.0222C20.111 36.3086 20.1358 36.592 20.1875 36.8715C18.9902 36.4836 18.1221 35.3579 18.1221 34.0333C18.1221 32.3885 19.4606 31.05 21.1054 31.05C21.7299 31.05 22.3296 31.2529 22.8258 31.6109C22.786 31.6318 22.7502 31.6586 22.7104 31.6805C22.3932 31.8545 22.0969 32.0584 21.8264 32.296C21.7876 32.3299 21.7448 32.3597 21.707 32.3945ZM22.5066 37.498C22.5026 37.49 22.5006 37.4801 22.4956 37.4721C22.3693 37.2484 22.2779 37.0187 22.2122 36.787C22.2082 36.771 22.2013 36.7551 22.1973 36.7392C22.1337 36.5025 22.0999 36.2639 22.0999 36.0222C22.0999 35.8283 22.1217 35.6404 22.1565 35.4564C22.1764 35.3579 22.2092 35.2645 22.2381 35.17C22.261 35.0924 22.2808 35.0129 22.3107 34.9373C22.3594 34.815 22.4201 34.6996 22.4847 34.5853C22.5056 34.5465 22.5245 34.5067 22.5474 34.4699C22.6279 34.3416 22.7184 34.2193 22.8168 34.1039C22.8298 34.089 22.8417 34.0731 22.8546 34.0572C22.966 33.9319 23.0873 33.8156 23.2186 33.7101C23.2206 33.7091 23.2216 33.7072 23.2236 33.7062C23.6353 33.378 24.1375 33.1542 24.6904 33.0807C24.6993 33.0797 24.7073 33.0757 24.7162 33.0737C24.8386 33.0608 24.9579 33.0389 25.0832 33.0389C26.728 33.0389 28.0665 34.3774 28.0665 36.0222C28.0665 37.667 26.728 39.0056 25.0832 39.0056C23.9774 39.0056 23.0217 38.394 22.5066 37.498ZM56.9054 44.9722C56.9054 46.617 55.5669 47.9556 53.9221 47.9556H45.9665C45.4176 47.9556 44.9721 48.4011 44.9721 48.95V67.8444H40.9943V56.9056H39.0054V67.8444H35.0276V48.95C35.0276 48.4011 34.5821 47.9556 34.0332 47.9556H26.0776C24.4328 47.9556 23.0943 46.617 23.0943 44.9722V40.5728C23.7049 40.8413 24.3751 40.9944 25.0832 40.9944V44.9722C25.0832 45.5212 25.5287 45.9667 26.0776 45.9667H36.0221H36.4537L39.1476 50.4566C39.3266 50.7559 39.6508 50.9389 39.9999 50.9389C40.3489 50.9389 40.6731 50.7559 40.8521 50.4566L43.546 45.9667H43.9776H53.9221C54.471 45.9667 54.9165 45.5212 54.9165 44.9722V40.9944C55.6246 40.9944 56.2948 40.8413 56.9054 40.5728V44.9722ZM57.8024 36.7392C57.7984 36.7551 57.7915 36.771 57.7875 36.787C57.7218 37.0187 57.6294 37.2484 57.5031 37.4721C57.4991 37.4791 57.4991 37.486 57.4951 37.493C56.982 38.392 56.0243 39.0056 54.9165 39.0056C53.2717 39.0056 51.9332 37.667 51.9332 36.0222C51.9332 34.3774 53.2717 33.0389 54.9165 33.0389C55.0418 33.0389 55.1612 33.0608 55.2825 33.0757C55.2914 33.0767 55.2994 33.0817 55.3083 33.0826C55.8612 33.1562 56.3634 33.38 56.7751 33.7082C56.7771 33.7091 56.7781 33.7111 56.7801 33.7121C56.9114 33.8175 57.0327 33.9339 57.1441 34.0592C57.157 34.0741 57.1689 34.09 57.1819 34.1059C57.2803 34.2213 57.3708 34.3426 57.4514 34.4719C57.4742 34.5087 57.4931 34.5485 57.514 34.5872C57.5786 34.7016 57.6393 34.818 57.688 34.9403C57.7169 35.0149 57.7368 35.0944 57.7596 35.171C57.7885 35.2664 57.8223 35.3599 57.8422 35.4584C57.878 35.6404 57.8999 35.8283 57.8999 36.0222C57.8999 36.2639 57.866 36.5025 57.8024 36.7392ZM59.8122 36.8715C59.8639 36.592 59.8887 36.3086 59.8887 36.0222C59.8887 35.7219 59.8519 35.4305 59.8002 35.1431C59.7833 35.0507 59.7624 34.9612 59.7416 34.8707C59.6928 34.6708 59.6322 34.4769 59.5596 34.2869C59.5268 34.1984 59.4999 34.1089 59.4621 34.0224C59.3607 33.7957 59.2414 33.5799 59.1091 33.372C59.0315 33.2487 58.943 33.1354 58.8555 33.02C58.7829 32.9255 58.7083 32.834 58.6288 32.7455C58.5214 32.6232 58.413 32.5049 58.2946 32.3935C58.2569 32.3587 58.2141 32.3289 58.1753 32.295C57.9048 32.0584 57.6095 31.8545 57.2913 31.6795C57.2495 31.6586 57.2137 31.6318 57.1739 31.6109C57.6701 31.2529 58.2698 31.05 58.8943 31.05C60.5391 31.05 61.8776 32.3885 61.8776 34.0333C61.8776 35.3579 61.0095 36.4836 59.8122 36.8715Z" fill="white"/>
</g>
</g>
<g id="Group_3">
<g id="Group_4">
<path id="Vector_2" d="M59.8888 52.9275C59.8888 53.4768 60.334 53.922 60.8833 53.922C61.4325 53.922 61.8777 53.4768 61.8777 52.9275C61.8777 52.3783 61.4325 51.9331 60.8833 51.9331C60.334 51.9331 59.8888 52.3783 59.8888 52.9275Z" fill="white"/>
</g>
</g>
<g id="Group_5">
<g id="Group_6">
<path id="Vector_3" d="M59.8888 56.9056C59.8888 57.4548 60.334 57.9 60.8833 57.9C61.4325 57.9 61.8777 57.4548 61.8777 56.9056C61.8777 56.3564 61.4325 55.9111 60.8833 55.9111C60.334 55.9111 59.8888 56.3564 59.8888 56.9056Z" fill="white"/>
</g>
</g>
<g id="Group_7">
<g id="Group_8">
<path id="Vector_4" d="M55.9112 56.9056C55.9112 57.4548 56.3564 57.9 56.9057 57.9C57.4549 57.9 57.9001 57.4548 57.9001 56.9056C57.9001 56.3564 57.4549 55.9111 56.9057 55.9111C56.3564 55.9111 55.9112 56.3564 55.9112 56.9056Z" fill="white"/>
</g>
</g>
<g id="Group_9">
<g id="Group_10">
<path id="Vector_5" d="M63.8668 56.9056C63.8668 57.4548 64.312 57.9 64.8613 57.9C65.4105 57.9 65.8557 57.4548 65.8557 56.9056C65.8557 56.3564 65.4105 55.9111 64.8613 55.9111C64.312 55.9111 63.8668 56.3564 63.8668 56.9056Z" fill="white"/>
</g>
</g>
<g id="Group_11">
<g id="Group_12">
<path id="Vector_6" d="M18.1224 52.9275C18.1224 53.4768 18.5676 53.922 19.1168 53.922C19.666 53.922 20.1113 53.4768 20.1113 52.9275C20.1113 52.3783 19.666 51.9331 19.1168 51.9331C18.5676 51.9331 18.1224 52.3783 18.1224 52.9275Z" fill="white"/>
</g>
</g>
<g id="Group_13">
<g id="Group_14">
<path id="Vector_7" d="M18.1224 56.9056C18.1224 57.4548 18.5676 57.9 19.1168 57.9C19.666 57.9 20.1113 57.4548 20.1113 56.9056C20.1113 56.3564 19.666 55.9111 19.1168 55.9111C18.5676 55.9111 18.1224 56.3564 18.1224 56.9056Z" fill="white"/>
</g>
</g>
<g id="Group_15">
<g id="Group_16">
<path id="Vector_8" d="M14.1444 56.9056C14.1444 57.4548 14.5896 57.9 15.1388 57.9C15.688 57.9 16.1333 57.4548 16.1333 56.9056C16.1333 56.3564 15.688 55.9111 15.1388 55.9111C14.5896 55.9111 14.1444 56.3564 14.1444 56.9056Z" fill="white"/>
</g>
</g>
<g id="Group_17">
<g id="Group_18">
<path id="Vector_9" d="M22.1 56.9056C22.1 57.4548 22.5452 57.9 23.0944 57.9C23.6436 57.9 24.0889 57.4548 24.0889 56.9056C24.0889 56.3564 23.6436 55.9111 23.0944 55.9111C22.5452 55.9111 22.1 56.3564 22.1 56.9056Z" fill="white"/>
</g>
</g>
<g id="Group_19">
<g id="Group_20">
<path id="Vector_10" d="M18.1224 60.8834C18.1224 61.4326 18.5676 61.8778 19.1168 61.8778C19.666 61.8778 20.1113 61.4326 20.1113 60.8834C20.1113 60.3341 19.666 59.8889 19.1168 59.8889C18.5676 59.8889 18.1224 60.3341 18.1224 60.8834Z" fill="white"/>
</g>
</g>
<g id="Group_21">
<g id="Group_22">
<path id="Vector_11" d="M14.1444 60.8834C14.1444 61.4326 14.5896 61.8778 15.1388 61.8778C15.688 61.8778 16.1333 61.4326 16.1333 60.8834C16.1333 60.3341 15.688 59.8889 15.1388 59.8889C14.5896 59.8889 14.1444 60.3341 14.1444 60.8834Z" fill="white"/>
</g>
</g>
<g id="Group_23">
<g id="Group_24">
<path id="Vector_12" d="M10.1668 60.8834C10.1668 61.4326 10.612 61.8778 11.1612 61.8778C11.7104 61.8778 12.1557 61.4326 12.1557 60.8834C12.1557 60.3341 11.7104 59.8889 11.1612 59.8889C10.612 59.8889 10.1668 60.3341 10.1668 60.8834Z" fill="white"/>
</g>
</g>
<g id="Group_25">
<g id="Group_26">
<path id="Vector_13" d="M22.1 60.8834C22.1 61.4326 22.5452 61.8778 23.0944 61.8778C23.6436 61.8778 24.0889 61.4326 24.0889 60.8834C24.0889 60.3341 23.6436 59.8889 23.0944 59.8889C22.5452 59.8889 22.1 60.3341 22.1 60.8834Z" fill="white"/>
</g>
</g>
<g id="Group_27">
<g id="Group_28">
<path id="Vector_14" d="M26.0776 60.8834C26.0776 61.4326 26.5228 61.8778 27.072 61.8778C27.6213 61.8778 28.0665 61.4326 28.0665 60.8834C28.0665 60.3341 27.6213 59.8889 27.072 59.8889C26.5228 59.8889 26.0776 60.3341 26.0776 60.8834Z" fill="white"/>
</g>
</g>
<g id="Group_29">
<g id="Group_30">
<path id="Vector_15" d="M59.8888 60.8834C59.8888 61.4326 60.334 61.8778 60.8833 61.8778C61.4325 61.8778 61.8777 61.4326 61.8777 60.8834C61.8777 60.3341 61.4325 59.8889 60.8833 59.8889C60.334 59.8889 59.8888 60.3341 59.8888 60.8834Z" fill="white"/>
</g>
</g>
<g id="Group_31">
<g id="Group_32">
<path id="Vector_16" d="M55.9112 60.8834C55.9112 61.4326 56.3564 61.8778 56.9057 61.8778C57.4549 61.8778 57.9001 61.4326 57.9001 60.8834C57.9001 60.3341 57.4549 59.8889 56.9057 59.8889C56.3564 59.8889 55.9112 60.3341 55.9112 60.8834Z" fill="white"/>
</g>
</g>
<g id="Group_33">
<g id="Group_34">
<path id="Vector_17" d="M51.9332 60.8834C51.9332 61.4326 52.3784 61.8778 52.9277 61.8778C53.4769 61.8778 53.9221 61.4326 53.9221 60.8834C53.9221 60.3341 53.4769 59.8889 52.9277 59.8889C52.3784 59.8889 51.9332 60.3341 51.9332 60.8834Z" fill="white"/>
</g>
</g>
<g id="Group_35">
<g id="Group_36">
<path id="Vector_18" d="M63.8668 60.8834C63.8668 61.4326 64.312 61.8778 64.8613 61.8778C65.4105 61.8778 65.8557 61.4326 65.8557 60.8834C65.8557 60.3341 65.4105 59.8889 64.8613 59.8889C64.312 59.8889 63.8668 60.3341 63.8668 60.8834Z" fill="white"/>
</g>
</g>
<g id="Group_37">
<g id="Group_38">
<path id="Vector_19" d="M67.8444 60.8834C67.8444 61.4326 68.2897 61.8778 68.8389 61.8778C69.3881 61.8778 69.8333 61.4326 69.8333 60.8834C69.8333 60.3341 69.3881 59.8889 68.8389 59.8889C68.2897 59.8889 67.8444 60.3341 67.8444 60.8834Z" fill="white"/>
</g>
</g>
</g>
<defs>
<radialGradient id="paint0_radial_173_177" cx="0" cy="0" r="1" gradientUnits="userSpaceOnUse" gradientTransform="translate(74.8514 6.4) rotate(129.464) scale(95.3342 96.1082)">
<stop stop-color="#00E0F7" stop-opacity="0.8"/>
<stop offset="0.88125" stop-color="#8B00BD"/>
</radialGradient>
</defs>
</svg>
