<svg width="80" height="80" viewBox="0 0 80 80" fill="none" xmlns="http://www.w3.org/2000/svg">
<rect width="80" height="80" rx="40" fill="white"/>
<rect width="80" height="80" rx="40" fill="url(#paint0_radial_173_1621)"/>
<path d="M40 18.875C28.352 18.875 18.875 28.352 18.875 40C18.875 51.648 28.352 61.125 40 61.125C51.648 61.125 61.125 51.648 61.125 40C61.125 28.352 51.648 18.875 40 18.875ZM40 22.125C49.8556 22.125 57.875 30.1444 57.875 40C57.875 49.8556 49.8556 57.875 40 57.875C30.1444 57.875 22.125 49.8556 22.125 40C22.125 30.1444 30.1444 22.125 40 22.125ZM31.875 33.5C28.4722 33.5 26.0087 35.4614 26.0087 35.4614L27.9912 38.0386C27.9912 38.0386 29.7495 36.75 31.8766 36.75C34.0038 36.75 35.7604 38.0386 35.7604 38.0386L37.7429 35.4614C37.738 35.4614 35.2761 33.5 31.875 33.5ZM48.125 33.5C44.7222 33.5 42.2587 35.4614 42.2587 35.4614L44.2413 38.0386C44.2413 38.0386 45.9995 36.75 48.1266 36.75C50.2537 36.75 52.0104 38.0386 52.0104 38.0386L53.9929 35.4614C53.988 35.4614 51.5261 33.5 48.125 33.5ZM28.625 44.875C28.625 44.875 31.2331 53 40 53C48.7669 53 51.375 44.875 51.375 44.875H28.625Z" fill="white"/>
<defs>
<radialGradient id="paint0_radial_173_1621" cx="0" cy="0" r="1" gradientUnits="userSpaceOnUse" gradientTransform="translate(74.8514 6.4) rotate(129.464) scale(95.3342 96.1082)">
<stop stop-color="#00E0F7" stop-opacity="0.8"/>
<stop offset="0.88125" stop-color="#8B00BD"/>
</radialGradient>
</defs>
</svg>
