<svg width="80" height="80" viewBox="0 0 80 80" fill="none" xmlns="http://www.w3.org/2000/svg">
<rect width="80" height="80" rx="40" fill="white"/>
<rect width="80" height="80" rx="40" fill="url(#paint0_radial_173_1557)"/>
<path d="M35.6667 53V52.7682C35.6667 51.0457 34.592 49.5442 33.2465 48.4695C31.4903 47.069 30.2129 45.1572 29.5911 42.9987C28.9693 40.8402 29.0338 38.5418 29.7757 36.4217C30.5176 34.3015 31.9002 32.4643 33.7322 31.1645C35.5641 29.8647 37.7548 29.1664 40.0011 29.1664C42.2473 29.1664 44.438 29.8647 46.27 31.1645C48.102 32.4643 49.4846 34.3015 50.2265 36.4217C50.9684 38.5418 51.0329 40.8402 50.411 42.9987C49.7892 45.1572 48.5118 47.069 46.7557 48.4695C45.408 49.5463 44.3333 51.0457 44.3333 52.7682V53M35.6667 53V57.3333C35.6667 57.908 35.8949 58.4591 36.3013 58.8654C36.7076 59.2717 37.2587 59.5 37.8333 59.5H42.1667C42.7413 59.5 43.2924 59.2717 43.6987 58.8654C44.1051 58.4591 44.3333 57.908 44.3333 57.3333V53M35.6667 53H44.3333M57.3333 40H59.5M22.6667 40H20.5M40 22.6667V20.5M52.2568 27.7432L53.7887 26.2113M27.7453 27.7432L26.2113 26.2113M40 46.5V42.1667" stroke="white" stroke-width="3" stroke-linecap="round" stroke-linejoin="round"/>
<defs>
<radialGradient id="paint0_radial_173_1557" cx="0" cy="0" r="1" gradientUnits="userSpaceOnUse" gradientTransform="translate(74.8514 6.4) rotate(129.464) scale(95.3342 96.1082)">
<stop stop-color="#00E0F7" stop-opacity="0.8"/>
<stop offset="0.88125" stop-color="#8B00BD"/>
</radialGradient>
</defs>
</svg>
